<svg xmlns="http://www.w3.org/2000/svg" version="1.0" viewBox="0 0 412.08 412.08"><path d="M10.302 195.741c-5.687 5.687-5.687 14.917 0 20.604l123.622 123.622c5.687 5.687 14.917 5.687 20.604 0L278.15 216.345c5.687-5.687 5.687-14.917 0-20.604l-61.811-61.811c-5.687-5.687-14.917-5.687-20.604 0l-72.113 72.113 20.604 20.604 61.811-61.811 41.207 41.207L144.226 309.06 41.207 206.043l164.83-164.83 164.83 164.83-185.434 185.433 20.604 20.604 195.735-195.735c5.687-5.687 5.687-14.917 0-20.604L216.34 10.308c-5.687-5.687-14.917-5.687-20.604 0L10.302 195.74z"/></svg>
