<svg xmlns="http://www.w3.org/2000/svg" viewBox="0 0 148 44.844"><path d="M4 20h8v-4H4V0H0v34c0 .552.232 1.044.594 1.406L10 44.844 12.844 42 4 33.187zm12-4v18c0 .552.232 1.044.594 1.406l8 8c.362.362.854.594 1.406.594h6v-5.188l4.594 4.594c.362.362.854.594 1.406.594h6V16h-4v24h-1.188L32 33.187V16h-4v24h-1.188L20 33.187V16h-4zm60 28V0h-4v16H62a2 2 0 0 0-2 2v16c0 .552.232 1.044.594 1.406l8 8c.362.362.854.594 1.406.594zm-4-4h-1.188L64 33.187V20h8zm40-6c0 .552.232 1.044.594 1.406L122 44.844 124.844 42l-8.031-8 10.593-10.594c.362-.362.594-.854.594-1.406v-4a2 2 0 0 0-2-2h-12a2 2 0 0 0-2 2zm4-14h8v1.187l-8 8zm20 1.187V20h12v-4h-14a2 2 0 0 0-2 2v4c0 .552.232 1.044.594 1.406L143.188 34l-8.032 8L138 44.844l9.406-9.407a2.019 2.019 0 0 0 0-2.843zM52 16h-4v18c0 .552.232 1.044.594 1.406L58 44.844 60.844 42 52 33.187zm-2-5.172L52.828 8 50 5.172 47.172 8zM96 44V0h-4v16H82a2 2 0 0 0-2 2v16c0 .552.232 1.044.594 1.406l8 8c.362.362.854.594 1.406.594zm-4-4h-1.188L84 33.187V20h8zm12-40h-4v34c0 .552.232 1.044.594 1.406L110 44.844 112.844 42 104 33.187z"/></svg>
