<?xml version="1.0" encoding="UTF-8" standalone="no"?>
<!-- Created with Inkscape (http://www.inkscape.org/) -->

<svg
   width="1280"
   height="640"
   viewBox="0 0 1280 640"
   version="1.1"
   id="svg5"
   inkscape:version="1.1.2 (b8e25be833, 2022-02-05)"
   sodipodi:docname="github-repo-social-img.svg"
   xmlns:inkscape="http://www.inkscape.org/namespaces/inkscape"
   xmlns:sodipodi="http://sodipodi.sourceforge.net/DTD/sodipodi-0.dtd"
   xmlns="http://www.w3.org/2000/svg"
   xmlns:svg="http://www.w3.org/2000/svg">
  <sodipodi:namedview
     id="namedview7"
     pagecolor="#ffffff"
     bordercolor="#666666"
     borderopacity="1.0"
     inkscape:pageshadow="2"
     inkscape:pageopacity="0.0"
     inkscape:pagecheckerboard="true"
     inkscape:document-units="px"
     showgrid="true"
     units="px"
     width="1280px"
     viewbox-height="641.40003"
     scale-x="1"
     inkscape:zoom="0.7703125"
     inkscape:cx="689.97972"
     inkscape:cy="431.643"
     inkscape:window-width="1280"
     inkscape:window-height="650"
     inkscape:window-x="-6"
     inkscape:window-y="-6"
     inkscape:window-maximized="1"
     inkscape:current-layer="layer1"
     showguides="true"
     inkscape:guide-bbox="true">
    <inkscape:grid
       type="xygrid"
       id="grid824"
       empspacing="4"
       spacingx="16"
       spacingy="16" />
    <sodipodi:guide
       position="128,560"
       orientation="0,-1"
       id="guide1177" />
    <sodipodi:guide
       position="1056,80"
       orientation="0,-1"
       id="guide1179" />
    <sodipodi:guide
       position="80,496"
       orientation="1,0"
       id="guide1181" />
    <sodipodi:guide
       position="1200,432"
       orientation="1,0"
       id="guide1183" />
  </sodipodi:namedview>
  <defs
     id="defs2">
    <inkscape:perspective
       sodipodi:type="inkscape:persp3d"
       inkscape:vp_x="0 : 526.18109 : 1"
       inkscape:vp_y="0 : 1000 : 0"
       inkscape:vp_z="744.09448 : 526.18109 : 1"
       inkscape:persp3d-origin="372.04724 : 350.78739 : 1"
       id="perspective10" />
  </defs>
  <g
     inkscape:label="Layer 1"
     inkscape:groupmode="layer"
     id="layer1">
    <path
       style="fill:#00ff00;fill-opacity:1;stroke:none;stroke-width:3;stroke-miterlimit:4;stroke-dasharray:none;stroke-opacity:1"
       d="m 588.93822,299.40927 c -2.338,2.338 -2.338,6.13303 0,8.47104 l 50.82625,50.82626 c 2.33801,2.33801 6.13303,2.33801 8.47104,0 l 50.82625,-50.82626 c 2.338,-2.33801 2.338,-6.13304 0,-8.47104 l -25.41314,-25.41314 c -2.338,-2.338 -6.133,-2.338 -8.471,0 L 635.52895,303.64479 644,312.11583 669.41312,286.7027 686.35521,303.64479 644,346 l -42.35521,-42.35521 67.76833,-67.76835 67.76833,67.76836 -76.23938,76.23942 8.47105,8.47105 80.47492,-80.47496 c 2.338,-2.338 2.338,-6.13303 0,-8.47104 l -76.23942,-76.2394 c -2.338,-2.33801 -6.133,-2.33801 -8.471,0 z"
       id="path869"
       sodipodi:nodetypes="ccccccccccccccccccccccc" />
    <g
       id="g4121"
       transform="matrix(4.4024176,0,0,4.4024176,60.587248,-833.67328)"
       style="stroke-width:0.227148">
      <path
         sodipodi:nodetypes="cccccccccccc"
         inkscape:connector-curvature="0"
         id="path3095"
         transform="translate(0,252.36218)"
         d="m 92,24 h 8 V 20 H 92 V 4 h -4 v 34 c 0,0.55228 0.23182,1.04432 0.59375,1.40625 L 98,48.84375 100.84375,46 92,37.1875 Z"
         style="fill:#800080;stroke:none;stroke-width:0.227148" />
      <path
         id="path3103"
         transform="translate(0,252.36218)"
         d="m 104,20 v 18 c 0,0.55228 0.23182,1.04432 0.59375,1.40625 l 8,8 C 112.95568,47.76818 113.44772,48 114,48 h 6 v -5.1875 l 4.59375,4.59375 C 124.95568,47.76818 125.44772,48 126,48 h 6 V 20 h -4 v 24 h -1.1875 L 120,37.1875 V 20 h -4 v 24 h -1.1875 L 108,37.1875 V 20 Z"
         style="fill:#800080;stroke:none;stroke-width:0.227148"
         inkscape:connector-curvature="0" />
      <path
         sodipodi:nodetypes="cccccccsscccccccc"
         inkscape:connector-curvature="0"
         id="path3125"
         transform="translate(0,252.36218)"
         d="M 164,48 V 4 h -4 v 16 h -10 c -1.10457,0 -2,0.89543 -2,2 v 16 c 0,0.55228 0.23182,1.04432 0.59375,1.40625 l 8,8 C 156.95568,47.76818 157.44772,48 158,48 Z m -4,-4 h -1.1875 L 152,37.1875 V 24 h 8 z"
         style="fill:#800080;stroke:none;stroke-width:0.227148" />
      <path
         sodipodi:nodetypes="cccccsccssccccccc"
         inkscape:connector-curvature="0"
         id="path3165"
         transform="translate(0,252.36218)"
         d="m 200,38 c 0,0.55228 0.23182,1.04432 0.59375,1.40625 L 210,48.84375 212.84375,46 204.8125,38 215.40625,27.40625 C 215.76818,27.04432 216,26.55228 216,26 v -4 c 0,-1.10457 -0.89543,-2 -2,-2 h -12 c -1.10457,0 -2,0.89543 -2,2 z m 4,-14 h 8 v 1.1875 l -8,8 z"
         style="fill:#800080;stroke:none;stroke-width:0.227148" />
      <path
         sodipodi:nodetypes="ccccsssccccscc"
         inkscape:connector-curvature="0"
         id="path3181"
         transform="translate(0,252.36218)"
         d="M 224,25.1875 V 24 h 12 v -4 h -14 c -1.10457,0 -2,0.89543 -2,2 v 4 c 0,0.55228 0.23182,1.04432 0.59375,1.40625 L 231.1875,38 223.15625,46 226,48.84375 235.40625,39.4375 c 0.78105,-0.78105 0.78105,-2.0627 0,-2.84375 z"
         style="fill:#800080;stroke:none;stroke-width:0.227148" />
      <path
         d="m 140,20 h -4 v 18 c 0,0.55228 0.23182,1.04432 0.59375,1.40625 L 146,48.84375 148.84375,46 140,37.1875 Z M 138,14.82843 140.82843,12 138,9.17157 135.17157,12 Z"
         style="fill:#800080;stroke:none;stroke-width:0.227148"
         transform="translate(0,252.36218)"
         id="path3197"
         inkscape:connector-curvature="0" />
      <path
         style="fill:#800080;stroke:none;stroke-width:0.227148"
         d="m 184,300.36218 v -44 h -4 v 16 h -10 c -1.10457,0 -2,0.89543 -2,2 v 16 c 0,0.55228 0.23182,1.04432 0.59375,1.40625 l 8,8 c 0.36193,0.36193 0.85397,0.59375 1.40625,0.59375 z m -4,-4 h -1.1875 L 172,289.54968 v -13.1875 h 8 z"
         id="path4107"
         inkscape:connector-curvature="0"
         sodipodi:nodetypes="cccccccsscccccccc" />
      <path
         style="fill:#800080;stroke:none;stroke-width:0.227148"
         d="m 192,256.36218 h -4 v 34 c 0,0.55228 0.23182,1.04432 0.59375,1.40625 L 198,301.20593 200.84375,298.36218 192,289.54968 Z"
         id="path4109"
         inkscape:connector-curvature="0"
         sodipodi:nodetypes="cccccccc" />
    </g>
  </g>
</svg>
